<svg width="1034" height="260" viewBox="0 0 1034 260" xmlns="http://www.w3.org/2000/svg">
  <rect width="100%" height="100%" rx="22" fill="#0d1117"/>
  <rect x="10" y="10" width="1014" height="240" rx="22" fill="none" stroke="#30363d" stroke-width="2"/>

  <text x="517.0" y="32" text-anchor="middle" fill="#ff9ff3" font-family="monospace" font-size="18">
    🌷 Growing through every commit 🌷
  </text>
<text x="58" y="54" fill="#c9d1d9" font-family="monospace" font-size="13">Jul</text>
<text x="130" y="54" fill="#c9d1d9" font-family="monospace" font-size="13">Aug</text>
<text x="220" y="54" fill="#c9d1d9" font-family="monospace" font-size="13">Sep</text>
<text x="292" y="54" fill="#c9d1d9" font-family="monospace" font-size="13">Oct</text>
<text x="364" y="54" fill="#c9d1d9" font-family="monospace" font-size="13">Nov</text>
<text x="454" y="54" fill="#c9d1d9" font-family="monospace" font-size="13">Dec</text>
<text x="526" y="54" fill="#c9d1d9" font-family="monospace" font-size="13">Jan</text>
<text x="616" y="54" fill="#c9d1d9" font-family="monospace" font-size="13">Feb</text>
<text x="688" y="54" fill="#c9d1d9" font-family="monospace" font-size="13">Mar</text>
<text x="760" y="54" fill="#c9d1d9" font-family="monospace" font-size="13">Apr</text>
<text x="832" y="54" fill="#c9d1d9" font-family="monospace" font-size="13">May</text>
<text x="922" y="54" fill="#c9d1d9" font-family="monospace" font-size="13">Jun</text>
<rect x="40" y="68" width="14" height="14" rx="3" fill="#1f6f3a" opacity="0.75"/>

        <line x1="47" y1="114" x2="47" y2="86" stroke="#4ade80" stroke-width="2"/>
        <ellipse cx="42" cy="99" rx="5" ry="3" fill="#7ee787"/>
        <ellipse cx="52" cy="93" rx="5" ry="3" fill="#7ee787"/>
        <circle cx="47" cy="83" r="3" fill="#ffd166"/>
        <circle cx="43" cy="83" r="3" fill="#ff6ec7"/>
        <circle cx="51" cy="83" r="3" fill="#ff6ec7"/>
        <circle cx="47" cy="79" r="3" fill="#ff6ec7"/>
        <circle cx="47" cy="87" r="3" fill="#ff6ec7"/>
        <rect x="40" y="86" width="14" height="14" rx="3" fill="#161b22"/>
<rect x="58" y="68" width="14" height="14" rx="3" fill="#161b22"/>
<rect x="58" y="86" width="14" height="14" rx="3" fill="#161b22"/>
<rect x="58" y="104" width="14" height="14" rx="3" fill="#1f6f3a" opacity="0.75"/>

        <line x1="65" y1="150" x2="65" y2="122" stroke="#4ade80" stroke-width="2"/>
        <ellipse cx="60" cy="135" rx="5" ry="3" fill="#7ee787"/>
        <ellipse cx="70" cy="129" rx="5" ry="3" fill="#7ee787"/>
        <circle cx="65" cy="119" r="3" fill="#ffd166"/>
        <circle cx="61" cy="119" r="3" fill="#ff6ec7"/>
        <circle cx="69" cy="119" r="3" fill="#ff6ec7"/>
        <circle cx="65" cy="115" r="3" fill="#ff6ec7"/>
        <circle cx="65" cy="123" r="3" fill="#ff6ec7"/>
        <rect x="58" y="122" width="14" height="14" rx="3" fill="#161b22"/>
<rect x="58" y="140" width="14" height="14" rx="3" fill="#161b22"/>
<rect x="58" y="158" width="14" height="14" rx="3" fill="#161b22"/>
<rect x="58" y="176" width="14" height="14" rx="3" fill="#161b22"/>
<rect x="76" y="68" width="14" height="14" rx="3" fill="#161b22"/>
<rect x="76" y="86" width="14" height="14" rx="3" fill="#161b22"/>
<rect x="76" y="104" width="14" height="14" rx="3" fill="#161b22"/>
<rect x="76" y="122" width="14" height="14" rx="3" fill="#161b22"/>
<rect x="76" y="140" width="14" height="14" rx="3" fill="#161b22"/>
<rect x="76" y="158" width="14" height="14" rx="3" fill="#161b22"/>
<rect x="76" y="176" width="14" height="14" rx="3" fill="#161b22"/>
<rect x="94" y="68" width="14" height="14" rx="3" fill="#161b22"/>
<rect x="94" y="86" width="14" height="14" rx="3" fill="#161b22"/>
<rect x="94" y="104" width="14" height="14" rx="3" fill="#1f6f3a" opacity="0.75"/>

        <line x1="101" y1="150" x2="101" y2="138" stroke="#4ade80" stroke-width="2"/>
        <ellipse cx="98" cy="141" rx="4" ry="2" fill="#7ee787"/>
        <ellipse cx="104" cy="137" rx="4" ry="2" fill="#7ee787"/>
        <rect x="94" y="122" width="14" height="14" rx="3" fill="#1f6f3a" opacity="0.75"/>

        <line x1="101" y1="168" x2="101" y2="148" stroke="#4ade80" stroke-width="2"/>
        <ellipse cx="97" cy="155" rx="5" ry="3" fill="#7ee787"/>
        <ellipse cx="105" cy="150" rx="5" ry="3" fill="#7ee787"/>
        <circle cx="101" cy="144" r="4" fill="#ff9ff3"/>
        <rect x="94" y="140" width="14" height="14" rx="3" fill="#1f6f3a" opacity="0.75"/>

        <line x1="101" y1="186" x2="101" y2="174" stroke="#4ade80" stroke-width="2"/>
        <ellipse cx="98" cy="177" rx="4" ry="2" fill="#7ee787"/>
        <ellipse cx="104" cy="173" rx="4" ry="2" fill="#7ee787"/>
        <rect x="94" y="158" width="14" height="14" rx="3" fill="#161b22"/>
<rect x="94" y="176" width="14" height="14" rx="3" fill="#161b22"/>
<rect x="112" y="68" width="14" height="14" rx="3" fill="#161b22"/>
<rect x="112" y="86" width="14" height="14" rx="3" fill="#1f6f3a" opacity="0.75"/>

        <line x1="119" y1="132" x2="119" y2="104" stroke="#4ade80" stroke-width="2"/>
        <ellipse cx="114" cy="117" rx="5" ry="3" fill="#7ee787"/>
        <ellipse cx="124" cy="111" rx="5" ry="3" fill="#7ee787"/>
        <circle cx="119" cy="101" r="3" fill="#ffd166"/>
        <circle cx="115" cy="101" r="3" fill="#ff6ec7"/>
        <circle cx="123" cy="101" r="3" fill="#ff6ec7"/>
        <circle cx="119" cy="97" r="3" fill="#ff6ec7"/>
        <circle cx="119" cy="105" r="3" fill="#ff6ec7"/>
        <rect x="112" y="104" width="14" height="14" rx="3" fill="#161b22"/>
<rect x="112" y="122" width="14" height="14" rx="3" fill="#161b22"/>
<rect x="112" y="140" width="14" height="14" rx="3" fill="#161b22"/>
<rect x="112" y="158" width="14" height="14" rx="3" fill="#161b22"/>
<rect x="112" y="176" width="14" height="14" rx="3" fill="#161b22"/>
<rect x="130" y="68" width="14" height="14" rx="3" fill="#161b22"/>
<rect x="130" y="86" width="14" height="14" rx="3" fill="#161b22"/>
<rect x="130" y="104" width="14" height="14" rx="3" fill="#161b22"/>
<rect x="130" y="122" width="14" height="14" rx="3" fill="#161b22"/>
<rect x="130" y="140" width="14" height="14" rx="3" fill="#161b22"/>
<rect x="130" y="158" width="14" height="14" rx="3" fill="#161b22"/>
<rect x="130" y="176" width="14" height="14" rx="3" fill="#161b22"/>
<rect x="148" y="68" width="14" height="14" rx="3" fill="#161b22"/>
<rect x="148" y="86" width="14" height="14" rx="3" fill="#161b22"/>
<rect x="148" y="104" width="14" height="14" rx="3" fill="#161b22"/>
<rect x="148" y="122" width="14" height="14" rx="3" fill="#161b22"/>
<rect x="148" y="140" width="14" height="14" rx="3" fill="#161b22"/>
<rect x="148" y="158" width="14" height="14" rx="3" fill="#161b22"/>
<rect x="148" y="176" width="14" height="14" rx="3" fill="#161b22"/>
<rect x="166" y="68" width="14" height="14" rx="3" fill="#161b22"/>
<rect x="166" y="86" width="14" height="14" rx="3" fill="#161b22"/>
<rect x="166" y="104" width="14" height="14" rx="3" fill="#161b22"/>
<rect x="166" y="122" width="14" height="14" rx="3" fill="#161b22"/>
<rect x="166" y="140" width="14" height="14" rx="3" fill="#161b22"/>
<rect x="166" y="158" width="14" height="14" rx="3" fill="#161b22"/>
<rect x="166" y="176" width="14" height="14" rx="3" fill="#161b22"/>
<rect x="184" y="68" width="14" height="14" rx="3" fill="#161b22"/>
<rect x="184" y="86" width="14" height="14" rx="3" fill="#161b22"/>
<rect x="184" y="104" width="14" height="14" rx="3" fill="#161b22"/>
<rect x="184" y="122" width="14" height="14" rx="3" fill="#161b22"/>
<rect x="184" y="140" width="14" height="14" rx="3" fill="#161b22"/>
<rect x="184" y="158" width="14" height="14" rx="3" fill="#161b22"/>
<rect x="184" y="176" width="14" height="14" rx="3" fill="#161b22"/>
<rect x="202" y="68" width="14" height="14" rx="3" fill="#161b22"/>
<rect x="202" y="86" width="14" height="14" rx="3" fill="#161b22"/>
<rect x="202" y="104" width="14" height="14" rx="3" fill="#161b22"/>
<rect x="202" y="122" width="14" height="14" rx="3" fill="#161b22"/>
<rect x="202" y="140" width="14" height="14" rx="3" fill="#161b22"/>
<rect x="202" y="158" width="14" height="14" rx="3" fill="#161b22"/>
<rect x="202" y="176" width="14" height="14" rx="3" fill="#161b22"/>
<rect x="220" y="68" width="14" height="14" rx="3" fill="#161b22"/>
<rect x="220" y="86" width="14" height="14" rx="3" fill="#161b22"/>
<rect x="220" y="104" width="14" height="14" rx="3" fill="#161b22"/>
<rect x="220" y="122" width="14" height="14" rx="3" fill="#161b22"/>
<rect x="220" y="140" width="14" height="14" rx="3" fill="#161b22"/>
<rect x="220" y="158" width="14" height="14" rx="3" fill="#161b22"/>
<rect x="220" y="176" width="14" height="14" rx="3" fill="#161b22"/>
<rect x="238" y="68" width="14" height="14" rx="3" fill="#161b22"/>
<rect x="238" y="86" width="14" height="14" rx="3" fill="#161b22"/>
<rect x="238" y="104" width="14" height="14" rx="3" fill="#161b22"/>
<rect x="238" y="122" width="14" height="14" rx="3" fill="#161b22"/>
<rect x="238" y="140" width="14" height="14" rx="3" fill="#161b22"/>
<rect x="238" y="158" width="14" height="14" rx="3" fill="#161b22"/>
<rect x="238" y="176" width="14" height="14" rx="3" fill="#161b22"/>
<rect x="256" y="68" width="14" height="14" rx="3" fill="#161b22"/>
<rect x="256" y="86" width="14" height="14" rx="3" fill="#161b22"/>
<rect x="256" y="104" width="14" height="14" rx="3" fill="#161b22"/>
<rect x="256" y="122" width="14" height="14" rx="3" fill="#161b22"/>
<rect x="256" y="140" width="14" height="14" rx="3" fill="#161b22"/>
<rect x="256" y="158" width="14" height="14" rx="3" fill="#161b22"/>
<rect x="256" y="176" width="14" height="14" rx="3" fill="#161b22"/>
<rect x="274" y="68" width="14" height="14" rx="3" fill="#161b22"/>
<rect x="274" y="86" width="14" height="14" rx="3" fill="#161b22"/>
<rect x="274" y="104" width="14" height="14" rx="3" fill="#161b22"/>
<rect x="274" y="122" width="14" height="14" rx="3" fill="#161b22"/>
<rect x="274" y="140" width="14" height="14" rx="3" fill="#161b22"/>
<rect x="274" y="158" width="14" height="14" rx="3" fill="#161b22"/>
<rect x="274" y="176" width="14" height="14" rx="3" fill="#161b22"/>
<rect x="292" y="68" width="14" height="14" rx="3" fill="#161b22"/>
<rect x="292" y="86" width="14" height="14" rx="3" fill="#161b22"/>
<rect x="292" y="104" width="14" height="14" rx="3" fill="#161b22"/>
<rect x="292" y="122" width="14" height="14" rx="3" fill="#161b22"/>
<rect x="292" y="140" width="14" height="14" rx="3" fill="#161b22"/>
<rect x="292" y="158" width="14" height="14" rx="3" fill="#161b22"/>
<rect x="292" y="176" width="14" height="14" rx="3" fill="#161b22"/>
<rect x="310" y="68" width="14" height="14" rx="3" fill="#161b22"/>
<rect x="310" y="86" width="14" height="14" rx="3" fill="#161b22"/>
<rect x="310" y="104" width="14" height="14" rx="3" fill="#161b22"/>
<rect x="310" y="122" width="14" height="14" rx="3" fill="#161b22"/>
<rect x="310" y="140" width="14" height="14" rx="3" fill="#161b22"/>
<rect x="310" y="158" width="14" height="14" rx="3" fill="#161b22"/>
<rect x="310" y="176" width="14" height="14" rx="3" fill="#161b22"/>
<rect x="328" y="68" width="14" height="14" rx="3" fill="#161b22"/>
<rect x="328" y="86" width="14" height="14" rx="3" fill="#161b22"/>
<rect x="328" y="104" width="14" height="14" rx="3" fill="#161b22"/>
<rect x="328" y="122" width="14" height="14" rx="3" fill="#161b22"/>
<rect x="328" y="140" width="14" height="14" rx="3" fill="#161b22"/>
<rect x="328" y="158" width="14" height="14" rx="3" fill="#161b22"/>
<rect x="328" y="176" width="14" height="14" rx="3" fill="#161b22"/>
<rect x="346" y="68" width="14" height="14" rx="3" fill="#161b22"/>
<rect x="346" y="86" width="14" height="14" rx="3" fill="#161b22"/>
<rect x="346" y="104" width="14" height="14" rx="3" fill="#161b22"/>
<rect x="346" y="122" width="14" height="14" rx="3" fill="#161b22"/>
<rect x="346" y="140" width="14" height="14" rx="3" fill="#161b22"/>
<rect x="346" y="158" width="14" height="14" rx="3" fill="#161b22"/>
<rect x="346" y="176" width="14" height="14" rx="3" fill="#161b22"/>
<rect x="364" y="68" width="14" height="14" rx="3" fill="#161b22"/>
<rect x="364" y="86" width="14" height="14" rx="3" fill="#161b22"/>
<rect x="364" y="104" width="14" height="14" rx="3" fill="#161b22"/>
<rect x="364" y="122" width="14" height="14" rx="3" fill="#161b22"/>
<rect x="364" y="140" width="14" height="14" rx="3" fill="#1f6f3a" opacity="0.75"/>

    <line x1="371" y1="186" x2="371" y2="150" stroke="#4ade80" stroke-width="2"/>
    <ellipse cx="365" cy="169" rx="6" ry="3" fill="#7ee787"/>
    <ellipse cx="377" cy="161" rx="6" ry="3" fill="#7ee787"/>
    <circle cx="371" cy="146" r="4" fill="#ffd166"/>
    <circle cx="366" cy="146" r="4" fill="#f78fb3"/>
    <circle cx="376" cy="146" r="4" fill="#f78fb3"/>
    <circle cx="371" cy="141" r="4" fill="#f78fb3"/>
    <circle cx="371" cy="151" r="4" fill="#f78fb3"/>
    <rect x="364" y="158" width="14" height="14" rx="3" fill="#1f6f3a" opacity="0.75"/>

        <line x1="371" y1="204" x2="371" y2="176" stroke="#4ade80" stroke-width="2"/>
        <ellipse cx="366" cy="189" rx="5" ry="3" fill="#7ee787"/>
        <ellipse cx="376" cy="183" rx="5" ry="3" fill="#7ee787"/>
        <circle cx="371" cy="173" r="3" fill="#ffd166"/>
        <circle cx="367" cy="173" r="3" fill="#ff6ec7"/>
        <circle cx="375" cy="173" r="3" fill="#ff6ec7"/>
        <circle cx="371" cy="169" r="3" fill="#ff6ec7"/>
        <circle cx="371" cy="177" r="3" fill="#ff6ec7"/>
        <rect x="364" y="176" width="14" height="14" rx="3" fill="#1f6f3a" opacity="0.75"/>

        <line x1="371" y1="222" x2="371" y2="210" stroke="#4ade80" stroke-width="2"/>
        <ellipse cx="368" cy="213" rx="4" ry="2" fill="#7ee787"/>
        <ellipse cx="374" cy="209" rx="4" ry="2" fill="#7ee787"/>
        <rect x="382" y="68" width="14" height="14" rx="3" fill="#161b22"/>
<rect x="382" y="86" width="14" height="14" rx="3" fill="#161b22"/>
<rect x="382" y="104" width="14" height="14" rx="3" fill="#161b22"/>
<rect x="382" y="122" width="14" height="14" rx="3" fill="#161b22"/>
<rect x="382" y="140" width="14" height="14" rx="3" fill="#161b22"/>
<rect x="382" y="158" width="14" height="14" rx="3" fill="#161b22"/>
<rect x="382" y="176" width="14" height="14" rx="3" fill="#161b22"/>
<rect x="400" y="68" width="14" height="14" rx="3" fill="#161b22"/>
<rect x="400" y="86" width="14" height="14" rx="3" fill="#161b22"/>
<rect x="400" y="104" width="14" height="14" rx="3" fill="#161b22"/>
<rect x="400" y="122" width="14" height="14" rx="3" fill="#161b22"/>
<rect x="400" y="140" width="14" height="14" rx="3" fill="#161b22"/>
<rect x="400" y="158" width="14" height="14" rx="3" fill="#161b22"/>
<rect x="400" y="176" width="14" height="14" rx="3" fill="#161b22"/>
<rect x="418" y="68" width="14" height="14" rx="3" fill="#161b22"/>
<rect x="418" y="86" width="14" height="14" rx="3" fill="#161b22"/>
<rect x="418" y="104" width="14" height="14" rx="3" fill="#161b22"/>
<rect x="418" y="122" width="14" height="14" rx="3" fill="#161b22"/>
<rect x="418" y="140" width="14" height="14" rx="3" fill="#161b22"/>
<rect x="418" y="158" width="14" height="14" rx="3" fill="#161b22"/>
<rect x="418" y="176" width="14" height="14" rx="3" fill="#161b22"/>
<rect x="436" y="68" width="14" height="14" rx="3" fill="#161b22"/>
<rect x="436" y="86" width="14" height="14" rx="3" fill="#161b22"/>
<rect x="436" y="104" width="14" height="14" rx="3" fill="#161b22"/>
<rect x="436" y="122" width="14" height="14" rx="3" fill="#161b22"/>
<rect x="436" y="140" width="14" height="14" rx="3" fill="#161b22"/>
<rect x="436" y="158" width="14" height="14" rx="3" fill="#161b22"/>
<rect x="436" y="176" width="14" height="14" rx="3" fill="#161b22"/>
<rect x="454" y="68" width="14" height="14" rx="3" fill="#161b22"/>
<rect x="454" y="86" width="14" height="14" rx="3" fill="#161b22"/>
<rect x="454" y="104" width="14" height="14" rx="3" fill="#161b22"/>
<rect x="454" y="122" width="14" height="14" rx="3" fill="#161b22"/>
<rect x="454" y="140" width="14" height="14" rx="3" fill="#161b22"/>
<rect x="454" y="158" width="14" height="14" rx="3" fill="#161b22"/>
<rect x="454" y="176" width="14" height="14" rx="3" fill="#161b22"/>
<rect x="472" y="68" width="14" height="14" rx="3" fill="#161b22"/>
<rect x="472" y="86" width="14" height="14" rx="3" fill="#1f6f3a" opacity="0.75"/>

        <line x1="479" y1="132" x2="479" y2="120" stroke="#4ade80" stroke-width="2"/>
        <ellipse cx="476" cy="123" rx="4" ry="2" fill="#7ee787"/>
        <ellipse cx="482" cy="119" rx="4" ry="2" fill="#7ee787"/>
        <rect x="472" y="104" width="14" height="14" rx="3" fill="#1f6f3a" opacity="0.75"/>

        <line x1="479" y1="150" x2="479" y2="130" stroke="#4ade80" stroke-width="2"/>
        <ellipse cx="475" cy="137" rx="5" ry="3" fill="#7ee787"/>
        <ellipse cx="483" cy="132" rx="5" ry="3" fill="#7ee787"/>
        <circle cx="479" cy="126" r="4" fill="#ff9ff3"/>
        <rect x="472" y="122" width="14" height="14" rx="3" fill="#1f6f3a" opacity="0.75"/>

        <line x1="479" y1="168" x2="479" y2="140" stroke="#4ade80" stroke-width="2"/>
        <ellipse cx="474" cy="153" rx="5" ry="3" fill="#7ee787"/>
        <ellipse cx="484" cy="147" rx="5" ry="3" fill="#7ee787"/>
        <circle cx="479" cy="137" r="3" fill="#ffd166"/>
        <circle cx="475" cy="137" r="3" fill="#ff6ec7"/>
        <circle cx="483" cy="137" r="3" fill="#ff6ec7"/>
        <circle cx="479" cy="133" r="3" fill="#ff6ec7"/>
        <circle cx="479" cy="141" r="3" fill="#ff6ec7"/>
        <rect x="472" y="140" width="14" height="14" rx="3" fill="#1f6f3a" opacity="0.75"/>

        <line x1="479" y1="186" x2="479" y2="166" stroke="#4ade80" stroke-width="2"/>
        <ellipse cx="475" cy="173" rx="5" ry="3" fill="#7ee787"/>
        <ellipse cx="483" cy="168" rx="5" ry="3" fill="#7ee787"/>
        <circle cx="479" cy="162" r="4" fill="#ff9ff3"/>
        <rect x="472" y="158" width="14" height="14" rx="3" fill="#1f6f3a" opacity="0.75"/>

        <line x1="479" y1="204" x2="479" y2="192" stroke="#4ade80" stroke-width="2"/>
        <ellipse cx="476" cy="195" rx="4" ry="2" fill="#7ee787"/>
        <ellipse cx="482" cy="191" rx="4" ry="2" fill="#7ee787"/>
        <rect x="472" y="176" width="14" height="14" rx="3" fill="#161b22"/>
<rect x="490" y="68" width="14" height="14" rx="3" fill="#161b22"/>
<rect x="490" y="86" width="14" height="14" rx="3" fill="#161b22"/>
<rect x="490" y="104" width="14" height="14" rx="3" fill="#161b22"/>
<rect x="490" y="122" width="14" height="14" rx="3" fill="#1f6f3a" opacity="0.75"/>

        <line x1="497" y1="168" x2="497" y2="156" stroke="#4ade80" stroke-width="2"/>
        <ellipse cx="494" cy="159" rx="4" ry="2" fill="#7ee787"/>
        <ellipse cx="500" cy="155" rx="4" ry="2" fill="#7ee787"/>
        <rect x="490" y="140" width="14" height="14" rx="3" fill="#1f6f3a" opacity="0.75"/>

        <line x1="497" y1="186" x2="497" y2="174" stroke="#4ade80" stroke-width="2"/>
        <ellipse cx="494" cy="177" rx="4" ry="2" fill="#7ee787"/>
        <ellipse cx="500" cy="173" rx="4" ry="2" fill="#7ee787"/>
        <rect x="490" y="158" width="14" height="14" rx="3" fill="#161b22"/>
<rect x="490" y="176" width="14" height="14" rx="3" fill="#161b22"/>
<rect x="508" y="68" width="14" height="14" rx="3" fill="#161b22"/>
<rect x="508" y="86" width="14" height="14" rx="3" fill="#1f6f3a" opacity="0.75"/>

        <line x1="515" y1="132" x2="515" y2="112" stroke="#4ade80" stroke-width="2"/>
        <ellipse cx="511" cy="119" rx="5" ry="3" fill="#7ee787"/>
        <ellipse cx="519" cy="114" rx="5" ry="3" fill="#7ee787"/>
        <circle cx="515" cy="108" r="4" fill="#ff9ff3"/>
        <rect x="508" y="104" width="14" height="14" rx="3" fill="#161b22"/>
<rect x="508" y="122" width="14" height="14" rx="3" fill="#161b22"/>
<rect x="508" y="140" width="14" height="14" rx="3" fill="#161b22"/>
<rect x="508" y="158" width="14" height="14" rx="3" fill="#161b22"/>
<rect x="508" y="176" width="14" height="14" rx="3" fill="#161b22"/>
<rect x="526" y="68" width="14" height="14" rx="3" fill="#161b22"/>
<rect x="526" y="86" width="14" height="14" rx="3" fill="#161b22"/>
<rect x="526" y="104" width="14" height="14" rx="3" fill="#161b22"/>
<rect x="526" y="122" width="14" height="14" rx="3" fill="#161b22"/>
<rect x="526" y="140" width="14" height="14" rx="3" fill="#161b22"/>
<rect x="526" y="158" width="14" height="14" rx="3" fill="#161b22"/>
<rect x="526" y="176" width="14" height="14" rx="3" fill="#161b22"/>
<rect x="544" y="68" width="14" height="14" rx="3" fill="#161b22"/>
<rect x="544" y="86" width="14" height="14" rx="3" fill="#161b22"/>
<rect x="544" y="104" width="14" height="14" rx="3" fill="#161b22"/>
<rect x="544" y="122" width="14" height="14" rx="3" fill="#161b22"/>
<rect x="544" y="140" width="14" height="14" rx="3" fill="#161b22"/>
<rect x="544" y="158" width="14" height="14" rx="3" fill="#161b22"/>
<rect x="544" y="176" width="14" height="14" rx="3" fill="#161b22"/>
<rect x="562" y="68" width="14" height="14" rx="3" fill="#161b22"/>
<rect x="562" y="86" width="14" height="14" rx="3" fill="#1f6f3a" opacity="0.75"/>

        <line x1="569" y1="132" x2="569" y2="120" stroke="#4ade80" stroke-width="2"/>
        <ellipse cx="566" cy="123" rx="4" ry="2" fill="#7ee787"/>
        <ellipse cx="572" cy="119" rx="4" ry="2" fill="#7ee787"/>
        <rect x="562" y="104" width="14" height="14" rx="3" fill="#1f6f3a" opacity="0.75"/>

        <line x1="569" y1="150" x2="569" y2="130" stroke="#4ade80" stroke-width="2"/>
        <ellipse cx="565" cy="137" rx="5" ry="3" fill="#7ee787"/>
        <ellipse cx="573" cy="132" rx="5" ry="3" fill="#7ee787"/>
        <circle cx="569" cy="126" r="4" fill="#ff9ff3"/>
        <rect x="562" y="122" width="14" height="14" rx="3" fill="#161b22"/>
<rect x="562" y="140" width="14" height="14" rx="3" fill="#1f6f3a" opacity="0.75"/>

        <line x1="569" y1="186" x2="569" y2="174" stroke="#4ade80" stroke-width="2"/>
        <ellipse cx="566" cy="177" rx="4" ry="2" fill="#7ee787"/>
        <ellipse cx="572" cy="173" rx="4" ry="2" fill="#7ee787"/>
        <rect x="562" y="158" width="14" height="14" rx="3" fill="#161b22"/>
<rect x="562" y="176" width="14" height="14" rx="3" fill="#161b22"/>
<rect x="580" y="68" width="14" height="14" rx="3" fill="#161b22"/>
<rect x="580" y="86" width="14" height="14" rx="3" fill="#161b22"/>
<rect x="580" y="104" width="14" height="14" rx="3" fill="#161b22"/>
<rect x="580" y="122" width="14" height="14" rx="3" fill="#1f6f3a" opacity="0.75"/>

        <line x1="587" y1="168" x2="587" y2="156" stroke="#4ade80" stroke-width="2"/>
        <ellipse cx="584" cy="159" rx="4" ry="2" fill="#7ee787"/>
        <ellipse cx="590" cy="155" rx="4" ry="2" fill="#7ee787"/>
        <rect x="580" y="140" width="14" height="14" rx="3" fill="#161b22"/>
<rect x="580" y="158" width="14" height="14" rx="3" fill="#161b22"/>
<rect x="580" y="176" width="14" height="14" rx="3" fill="#1f6f3a" opacity="0.75"/>

        <line x1="587" y1="222" x2="587" y2="210" stroke="#4ade80" stroke-width="2"/>
        <ellipse cx="584" cy="213" rx="4" ry="2" fill="#7ee787"/>
        <ellipse cx="590" cy="209" rx="4" ry="2" fill="#7ee787"/>
        <rect x="598" y="68" width="14" height="14" rx="3" fill="#161b22"/>
<rect x="598" y="86" width="14" height="14" rx="3" fill="#161b22"/>
<rect x="598" y="104" width="14" height="14" rx="3" fill="#161b22"/>
<rect x="598" y="122" width="14" height="14" rx="3" fill="#1f6f3a" opacity="0.75"/>

        <line x1="605" y1="168" x2="605" y2="156" stroke="#4ade80" stroke-width="2"/>
        <ellipse cx="602" cy="159" rx="4" ry="2" fill="#7ee787"/>
        <ellipse cx="608" cy="155" rx="4" ry="2" fill="#7ee787"/>
        <rect x="598" y="140" width="14" height="14" rx="3" fill="#161b22"/>
<rect x="598" y="158" width="14" height="14" rx="3" fill="#161b22"/>
<rect x="598" y="176" width="14" height="14" rx="3" fill="#161b22"/>
<rect x="616" y="68" width="14" height="14" rx="3" fill="#161b22"/>
<rect x="616" y="86" width="14" height="14" rx="3" fill="#1f6f3a" opacity="0.75"/>

        <line x1="623" y1="132" x2="623" y2="120" stroke="#4ade80" stroke-width="2"/>
        <ellipse cx="620" cy="123" rx="4" ry="2" fill="#7ee787"/>
        <ellipse cx="626" cy="119" rx="4" ry="2" fill="#7ee787"/>
        <rect x="616" y="104" width="14" height="14" rx="3" fill="#161b22"/>
<rect x="616" y="122" width="14" height="14" rx="3" fill="#161b22"/>
<rect x="616" y="140" width="14" height="14" rx="3" fill="#1f6f3a" opacity="0.75"/>

        <line x1="623" y1="186" x2="623" y2="158" stroke="#4ade80" stroke-width="2"/>
        <ellipse cx="618" cy="171" rx="5" ry="3" fill="#7ee787"/>
        <ellipse cx="628" cy="165" rx="5" ry="3" fill="#7ee787"/>
        <circle cx="623" cy="155" r="3" fill="#ffd166"/>
        <circle cx="619" cy="155" r="3" fill="#ff6ec7"/>
        <circle cx="627" cy="155" r="3" fill="#ff6ec7"/>
        <circle cx="623" cy="151" r="3" fill="#ff6ec7"/>
        <circle cx="623" cy="159" r="3" fill="#ff6ec7"/>
        <rect x="616" y="158" width="14" height="14" rx="3" fill="#1f6f3a" opacity="0.75"/>

        <line x1="623" y1="204" x2="623" y2="184" stroke="#4ade80" stroke-width="2"/>
        <ellipse cx="619" cy="191" rx="5" ry="3" fill="#7ee787"/>
        <ellipse cx="627" cy="186" rx="5" ry="3" fill="#7ee787"/>
        <circle cx="623" cy="180" r="4" fill="#ff9ff3"/>
        <rect x="616" y="176" width="14" height="14" rx="3" fill="#1f6f3a" opacity="0.75"/>

        <line x1="623" y1="222" x2="623" y2="202" stroke="#4ade80" stroke-width="2"/>
        <ellipse cx="619" cy="209" rx="5" ry="3" fill="#7ee787"/>
        <ellipse cx="627" cy="204" rx="5" ry="3" fill="#7ee787"/>
        <circle cx="623" cy="198" r="4" fill="#ff9ff3"/>
        <rect x="634" y="68" width="14" height="14" rx="3" fill="#161b22"/>
<rect x="634" y="86" width="14" height="14" rx="3" fill="#161b22"/>
<rect x="634" y="104" width="14" height="14" rx="3" fill="#161b22"/>
<rect x="634" y="122" width="14" height="14" rx="3" fill="#161b22"/>
<rect x="634" y="140" width="14" height="14" rx="3" fill="#161b22"/>
<rect x="634" y="158" width="14" height="14" rx="3" fill="#161b22"/>
<rect x="634" y="176" width="14" height="14" rx="3" fill="#161b22"/>
<rect x="652" y="68" width="14" height="14" rx="3" fill="#161b22"/>
<rect x="652" y="86" width="14" height="14" rx="3" fill="#161b22"/>
<rect x="652" y="104" width="14" height="14" rx="3" fill="#1f6f3a" opacity="0.75"/>

        <line x1="659" y1="150" x2="659" y2="130" stroke="#4ade80" stroke-width="2"/>
        <ellipse cx="655" cy="137" rx="5" ry="3" fill="#7ee787"/>
        <ellipse cx="663" cy="132" rx="5" ry="3" fill="#7ee787"/>
        <circle cx="659" cy="126" r="4" fill="#ff9ff3"/>
        <rect x="652" y="122" width="14" height="14" rx="3" fill="#161b22"/>
<rect x="652" y="140" width="14" height="14" rx="3" fill="#161b22"/>
<rect x="652" y="158" width="14" height="14" rx="3" fill="#161b22"/>
<rect x="652" y="176" width="14" height="14" rx="3" fill="#161b22"/>
<rect x="670" y="68" width="14" height="14" rx="3" fill="#161b22"/>
<rect x="670" y="86" width="14" height="14" rx="3" fill="#161b22"/>
<rect x="670" y="104" width="14" height="14" rx="3" fill="#161b22"/>
<rect x="670" y="122" width="14" height="14" rx="3" fill="#161b22"/>
<rect x="670" y="140" width="14" height="14" rx="3" fill="#161b22"/>
<rect x="670" y="158" width="14" height="14" rx="3" fill="#161b22"/>
<rect x="670" y="176" width="14" height="14" rx="3" fill="#161b22"/>
<rect x="688" y="68" width="14" height="14" rx="3" fill="#161b22"/>
<rect x="688" y="86" width="14" height="14" rx="3" fill="#161b22"/>
<rect x="688" y="104" width="14" height="14" rx="3" fill="#161b22"/>
<rect x="688" y="122" width="14" height="14" rx="3" fill="#161b22"/>
<rect x="688" y="140" width="14" height="14" rx="3" fill="#161b22"/>
<rect x="688" y="158" width="14" height="14" rx="3" fill="#161b22"/>
<rect x="688" y="176" width="14" height="14" rx="3" fill="#161b22"/>
<rect x="706" y="68" width="14" height="14" rx="3" fill="#161b22"/>
<rect x="706" y="86" width="14" height="14" rx="3" fill="#161b22"/>
<rect x="706" y="104" width="14" height="14" rx="3" fill="#161b22"/>
<rect x="706" y="122" width="14" height="14" rx="3" fill="#161b22"/>
<rect x="706" y="140" width="14" height="14" rx="3" fill="#161b22"/>
<rect x="706" y="158" width="14" height="14" rx="3" fill="#161b22"/>
<rect x="706" y="176" width="14" height="14" rx="3" fill="#1f6f3a" opacity="0.75"/>

        <line x1="713" y1="222" x2="713" y2="210" stroke="#4ade80" stroke-width="2"/>
        <ellipse cx="710" cy="213" rx="4" ry="2" fill="#7ee787"/>
        <ellipse cx="716" cy="209" rx="4" ry="2" fill="#7ee787"/>
        <rect x="724" y="68" width="14" height="14" rx="3" fill="#1f6f3a" opacity="0.75"/>

        <line x1="731" y1="114" x2="731" y2="86" stroke="#4ade80" stroke-width="2"/>
        <ellipse cx="726" cy="99" rx="5" ry="3" fill="#7ee787"/>
        <ellipse cx="736" cy="93" rx="5" ry="3" fill="#7ee787"/>
        <circle cx="731" cy="83" r="3" fill="#ffd166"/>
        <circle cx="727" cy="83" r="3" fill="#ff6ec7"/>
        <circle cx="735" cy="83" r="3" fill="#ff6ec7"/>
        <circle cx="731" cy="79" r="3" fill="#ff6ec7"/>
        <circle cx="731" cy="87" r="3" fill="#ff6ec7"/>
        <rect x="724" y="86" width="14" height="14" rx="3" fill="#161b22"/>
<rect x="724" y="104" width="14" height="14" rx="3" fill="#1f6f3a" opacity="0.75"/>

        <line x1="731" y1="150" x2="731" y2="130" stroke="#4ade80" stroke-width="2"/>
        <ellipse cx="727" cy="137" rx="5" ry="3" fill="#7ee787"/>
        <ellipse cx="735" cy="132" rx="5" ry="3" fill="#7ee787"/>
        <circle cx="731" cy="126" r="4" fill="#ff9ff3"/>
        <rect x="724" y="122" width="14" height="14" rx="3" fill="#161b22"/>
<rect x="724" y="140" width="14" height="14" rx="3" fill="#161b22"/>
<rect x="724" y="158" width="14" height="14" rx="3" fill="#161b22"/>
<rect x="724" y="176" width="14" height="14" rx="3" fill="#161b22"/>
<rect x="742" y="68" width="14" height="14" rx="3" fill="#161b22"/>
<rect x="742" y="86" width="14" height="14" rx="3" fill="#161b22"/>
<rect x="742" y="104" width="14" height="14" rx="3" fill="#161b22"/>
<rect x="742" y="122" width="14" height="14" rx="3" fill="#161b22"/>
<rect x="742" y="140" width="14" height="14" rx="3" fill="#161b22"/>
<rect x="742" y="158" width="14" height="14" rx="3" fill="#161b22"/>
<rect x="742" y="176" width="14" height="14" rx="3" fill="#161b22"/>
<rect x="760" y="68" width="14" height="14" rx="3" fill="#161b22"/>
<rect x="760" y="86" width="14" height="14" rx="3" fill="#161b22"/>
<rect x="760" y="104" width="14" height="14" rx="3" fill="#161b22"/>
<rect x="760" y="122" width="14" height="14" rx="3" fill="#161b22"/>
<rect x="760" y="140" width="14" height="14" rx="3" fill="#161b22"/>
<rect x="760" y="158" width="14" height="14" rx="3" fill="#161b22"/>
<rect x="760" y="176" width="14" height="14" rx="3" fill="#161b22"/>
<rect x="778" y="68" width="14" height="14" rx="3" fill="#161b22"/>
<rect x="778" y="86" width="14" height="14" rx="3" fill="#161b22"/>
<rect x="778" y="104" width="14" height="14" rx="3" fill="#1f6f3a" opacity="0.75"/>

        <line x1="785" y1="150" x2="785" y2="130" stroke="#4ade80" stroke-width="2"/>
        <ellipse cx="781" cy="137" rx="5" ry="3" fill="#7ee787"/>
        <ellipse cx="789" cy="132" rx="5" ry="3" fill="#7ee787"/>
        <circle cx="785" cy="126" r="4" fill="#ff9ff3"/>
        <rect x="778" y="122" width="14" height="14" rx="3" fill="#161b22"/>
<rect x="778" y="140" width="14" height="14" rx="3" fill="#161b22"/>
<rect x="778" y="158" width="14" height="14" rx="3" fill="#161b22"/>
<rect x="778" y="176" width="14" height="14" rx="3" fill="#161b22"/>
<rect x="796" y="68" width="14" height="14" rx="3" fill="#161b22"/>
<rect x="796" y="86" width="14" height="14" rx="3" fill="#161b22"/>
<rect x="796" y="104" width="14" height="14" rx="3" fill="#1f6f3a" opacity="0.75"/>

        <line x1="803" y1="150" x2="803" y2="122" stroke="#4ade80" stroke-width="2"/>
        <ellipse cx="798" cy="135" rx="5" ry="3" fill="#7ee787"/>
        <ellipse cx="808" cy="129" rx="5" ry="3" fill="#7ee787"/>
        <circle cx="803" cy="119" r="3" fill="#ffd166"/>
        <circle cx="799" cy="119" r="3" fill="#ff6ec7"/>
        <circle cx="807" cy="119" r="3" fill="#ff6ec7"/>
        <circle cx="803" cy="115" r="3" fill="#ff6ec7"/>
        <circle cx="803" cy="123" r="3" fill="#ff6ec7"/>
        <rect x="796" y="122" width="14" height="14" rx="3" fill="#161b22"/>
<rect x="796" y="140" width="14" height="14" rx="3" fill="#161b22"/>
<rect x="796" y="158" width="14" height="14" rx="3" fill="#161b22"/>
<rect x="796" y="176" width="14" height="14" rx="3" fill="#161b22"/>
<rect x="814" y="68" width="14" height="14" rx="3" fill="#161b22"/>
<rect x="814" y="86" width="14" height="14" rx="3" fill="#161b22"/>
<rect x="814" y="104" width="14" height="14" rx="3" fill="#1f6f3a" opacity="0.75"/>

        <line x1="821" y1="150" x2="821" y2="130" stroke="#4ade80" stroke-width="2"/>
        <ellipse cx="817" cy="137" rx="5" ry="3" fill="#7ee787"/>
        <ellipse cx="825" cy="132" rx="5" ry="3" fill="#7ee787"/>
        <circle cx="821" cy="126" r="4" fill="#ff9ff3"/>
        <rect x="814" y="122" width="14" height="14" rx="3" fill="#1f6f3a" opacity="0.75"/>

        <line x1="821" y1="168" x2="821" y2="140" stroke="#4ade80" stroke-width="2"/>
        <ellipse cx="816" cy="153" rx="5" ry="3" fill="#7ee787"/>
        <ellipse cx="826" cy="147" rx="5" ry="3" fill="#7ee787"/>
        <circle cx="821" cy="137" r="3" fill="#ffd166"/>
        <circle cx="817" cy="137" r="3" fill="#ff6ec7"/>
        <circle cx="825" cy="137" r="3" fill="#ff6ec7"/>
        <circle cx="821" cy="133" r="3" fill="#ff6ec7"/>
        <circle cx="821" cy="141" r="3" fill="#ff6ec7"/>
        <rect x="814" y="140" width="14" height="14" rx="3" fill="#161b22"/>
<rect x="814" y="158" width="14" height="14" rx="3" fill="#1f6f3a" opacity="0.75"/>

        <line x1="821" y1="204" x2="821" y2="184" stroke="#4ade80" stroke-width="2"/>
        <ellipse cx="817" cy="191" rx="5" ry="3" fill="#7ee787"/>
        <ellipse cx="825" cy="186" rx="5" ry="3" fill="#7ee787"/>
        <circle cx="821" cy="180" r="4" fill="#ff9ff3"/>
        <rect x="814" y="176" width="14" height="14" rx="3" fill="#161b22"/>
<rect x="832" y="68" width="14" height="14" rx="3" fill="#1f6f3a" opacity="0.75"/>

        <line x1="839" y1="114" x2="839" y2="102" stroke="#4ade80" stroke-width="2"/>
        <ellipse cx="836" cy="105" rx="4" ry="2" fill="#7ee787"/>
        <ellipse cx="842" cy="101" rx="4" ry="2" fill="#7ee787"/>
        <rect x="832" y="86" width="14" height="14" rx="3" fill="#161b22"/>
<rect x="832" y="104" width="14" height="14" rx="3" fill="#161b22"/>
<rect x="832" y="122" width="14" height="14" rx="3" fill="#1f6f3a" opacity="0.75"/>

        <line x1="839" y1="168" x2="839" y2="156" stroke="#4ade80" stroke-width="2"/>
        <ellipse cx="836" cy="159" rx="4" ry="2" fill="#7ee787"/>
        <ellipse cx="842" cy="155" rx="4" ry="2" fill="#7ee787"/>
        <rect x="832" y="140" width="14" height="14" rx="3" fill="#161b22"/>
<rect x="832" y="158" width="14" height="14" rx="3" fill="#161b22"/>
<rect x="832" y="176" width="14" height="14" rx="3" fill="#161b22"/>
<rect x="850" y="68" width="14" height="14" rx="3" fill="#161b22"/>
<rect x="850" y="86" width="14" height="14" rx="3" fill="#161b22"/>
<rect x="850" y="104" width="14" height="14" rx="3" fill="#1f6f3a" opacity="0.75"/>

        <line x1="857" y1="150" x2="857" y2="138" stroke="#4ade80" stroke-width="2"/>
        <ellipse cx="854" cy="141" rx="4" ry="2" fill="#7ee787"/>
        <ellipse cx="860" cy="137" rx="4" ry="2" fill="#7ee787"/>
        <rect x="850" y="122" width="14" height="14" rx="3" fill="#1f6f3a" opacity="0.75"/>

        <line x1="857" y1="168" x2="857" y2="148" stroke="#4ade80" stroke-width="2"/>
        <ellipse cx="853" cy="155" rx="5" ry="3" fill="#7ee787"/>
        <ellipse cx="861" cy="150" rx="5" ry="3" fill="#7ee787"/>
        <circle cx="857" cy="144" r="4" fill="#ff9ff3"/>
        <rect x="850" y="140" width="14" height="14" rx="3" fill="#161b22"/>
<rect x="850" y="158" width="14" height="14" rx="3" fill="#161b22"/>
<rect x="850" y="176" width="14" height="14" rx="3" fill="#161b22"/>
<rect x="868" y="68" width="14" height="14" rx="3" fill="#1f6f3a" opacity="0.75"/>

        <line x1="875" y1="114" x2="875" y2="94" stroke="#4ade80" stroke-width="2"/>
        <ellipse cx="871" cy="101" rx="5" ry="3" fill="#7ee787"/>
        <ellipse cx="879" cy="96" rx="5" ry="3" fill="#7ee787"/>
        <circle cx="875" cy="90" r="4" fill="#ff9ff3"/>
        <rect x="868" y="86" width="14" height="14" rx="3" fill="#161b22"/>
<rect x="868" y="104" width="14" height="14" rx="3" fill="#161b22"/>
<rect x="868" y="122" width="14" height="14" rx="3" fill="#161b22"/>
<rect x="868" y="140" width="14" height="14" rx="3" fill="#161b22"/>
<rect x="868" y="158" width="14" height="14" rx="3" fill="#161b22"/>
<rect x="868" y="176" width="14" height="14" rx="3" fill="#1f6f3a" opacity="0.75"/>

        <line x1="875" y1="222" x2="875" y2="210" stroke="#4ade80" stroke-width="2"/>
        <ellipse cx="872" cy="213" rx="4" ry="2" fill="#7ee787"/>
        <ellipse cx="878" cy="209" rx="4" ry="2" fill="#7ee787"/>
        <rect x="886" y="68" width="14" height="14" rx="3" fill="#1f6f3a" opacity="0.75"/>

        <line x1="893" y1="114" x2="893" y2="94" stroke="#4ade80" stroke-width="2"/>
        <ellipse cx="889" cy="101" rx="5" ry="3" fill="#7ee787"/>
        <ellipse cx="897" cy="96" rx="5" ry="3" fill="#7ee787"/>
        <circle cx="893" cy="90" r="4" fill="#ff9ff3"/>
        <rect x="886" y="86" width="14" height="14" rx="3" fill="#161b22"/>
<rect x="886" y="104" width="14" height="14" rx="3" fill="#161b22"/>
<rect x="886" y="122" width="14" height="14" rx="3" fill="#161b22"/>
<rect x="886" y="140" width="14" height="14" rx="3" fill="#161b22"/>
<rect x="886" y="158" width="14" height="14" rx="3" fill="#161b22"/>
<rect x="886" y="176" width="14" height="14" rx="3" fill="#161b22"/>
<rect x="904" y="68" width="14" height="14" rx="3" fill="#161b22"/>
<rect x="904" y="86" width="14" height="14" rx="3" fill="#161b22"/>
<rect x="904" y="104" width="14" height="14" rx="3" fill="#161b22"/>
<rect x="904" y="122" width="14" height="14" rx="3" fill="#161b22"/>
<rect x="904" y="140" width="14" height="14" rx="3" fill="#161b22"/>
<rect x="904" y="158" width="14" height="14" rx="3" fill="#161b22"/>
<rect x="904" y="176" width="14" height="14" rx="3" fill="#1f6f3a" opacity="0.75"/>

        <line x1="911" y1="222" x2="911" y2="210" stroke="#4ade80" stroke-width="2"/>
        <ellipse cx="908" cy="213" rx="4" ry="2" fill="#7ee787"/>
        <ellipse cx="914" cy="209" rx="4" ry="2" fill="#7ee787"/>
        <rect x="922" y="68" width="14" height="14" rx="3" fill="#161b22"/>
<rect x="922" y="86" width="14" height="14" rx="3" fill="#161b22"/>
<rect x="922" y="104" width="14" height="14" rx="3" fill="#161b22"/>
<rect x="922" y="122" width="14" height="14" rx="3" fill="#161b22"/>
<rect x="922" y="140" width="14" height="14" rx="3" fill="#161b22"/>
<rect x="922" y="158" width="14" height="14" rx="3" fill="#161b22"/>
<rect x="922" y="176" width="14" height="14" rx="3" fill="#161b22"/>
<rect x="940" y="68" width="14" height="14" rx="3" fill="#161b22"/>
<rect x="940" y="86" width="14" height="14" rx="3" fill="#161b22"/>
<rect x="940" y="104" width="14" height="14" rx="3" fill="#161b22"/>
<rect x="940" y="122" width="14" height="14" rx="3" fill="#161b22"/>
<rect x="940" y="140" width="14" height="14" rx="3" fill="#161b22"/>
<rect x="940" y="158" width="14" height="14" rx="3" fill="#161b22"/>
<rect x="940" y="176" width="14" height="14" rx="3" fill="#161b22"/>
<rect x="958" y="68" width="14" height="14" rx="3" fill="#161b22"/>
<rect x="958" y="86" width="14" height="14" rx="3" fill="#161b22"/>
<rect x="958" y="104" width="14" height="14" rx="3" fill="#1f6f3a" opacity="0.75"/>

        <line x1="965" y1="150" x2="965" y2="122" stroke="#4ade80" stroke-width="2"/>
        <ellipse cx="960" cy="135" rx="5" ry="3" fill="#7ee787"/>
        <ellipse cx="970" cy="129" rx="5" ry="3" fill="#7ee787"/>
        <circle cx="965" cy="119" r="3" fill="#ffd166"/>
        <circle cx="961" cy="119" r="3" fill="#ff6ec7"/>
        <circle cx="969" cy="119" r="3" fill="#ff6ec7"/>
        <circle cx="965" cy="115" r="3" fill="#ff6ec7"/>
        <circle cx="965" cy="123" r="3" fill="#ff6ec7"/>
        <rect x="958" y="122" width="14" height="14" rx="3" fill="#1f6f3a" opacity="0.75"/>

        <line x1="965" y1="168" x2="965" y2="156" stroke="#4ade80" stroke-width="2"/>
        <ellipse cx="962" cy="159" rx="4" ry="2" fill="#7ee787"/>
        <ellipse cx="968" cy="155" rx="4" ry="2" fill="#7ee787"/>
        <rect x="958" y="140" width="14" height="14" rx="3" fill="#1f6f3a" opacity="0.75"/>

        <line x1="965" y1="186" x2="965" y2="158" stroke="#4ade80" stroke-width="2"/>
        <ellipse cx="960" cy="171" rx="5" ry="3" fill="#7ee787"/>
        <ellipse cx="970" cy="165" rx="5" ry="3" fill="#7ee787"/>
        <circle cx="965" cy="155" r="3" fill="#ffd166"/>
        <circle cx="961" cy="155" r="3" fill="#ff6ec7"/>
        <circle cx="969" cy="155" r="3" fill="#ff6ec7"/>
        <circle cx="965" cy="151" r="3" fill="#ff6ec7"/>
        <circle cx="965" cy="159" r="3" fill="#ff6ec7"/>
        <rect x="958" y="158" width="14" height="14" rx="3" fill="#1f6f3a" opacity="0.75"/>

        <line x1="965" y1="204" x2="965" y2="176" stroke="#4ade80" stroke-width="2"/>
        <ellipse cx="960" cy="189" rx="5" ry="3" fill="#7ee787"/>
        <ellipse cx="970" cy="183" rx="5" ry="3" fill="#7ee787"/>
        <circle cx="965" cy="173" r="3" fill="#ffd166"/>
        <circle cx="961" cy="173" r="3" fill="#ff6ec7"/>
        <circle cx="969" cy="173" r="3" fill="#ff6ec7"/>
        <circle cx="965" cy="169" r="3" fill="#ff6ec7"/>
        <circle cx="965" cy="177" r="3" fill="#ff6ec7"/>
        <rect x="958" y="176" width="14" height="14" rx="3" fill="#1f6f3a" opacity="0.75"/>

        <line x1="965" y1="222" x2="965" y2="194" stroke="#4ade80" stroke-width="2"/>
        <ellipse cx="960" cy="207" rx="5" ry="3" fill="#7ee787"/>
        <ellipse cx="970" cy="201" rx="5" ry="3" fill="#7ee787"/>
        <circle cx="965" cy="191" r="3" fill="#ffd166"/>
        <circle cx="961" cy="191" r="3" fill="#ff6ec7"/>
        <circle cx="969" cy="191" r="3" fill="#ff6ec7"/>
        <circle cx="965" cy="187" r="3" fill="#ff6ec7"/>
        <circle cx="965" cy="195" r="3" fill="#ff6ec7"/>
        <rect x="976" y="68" width="14" height="14" rx="3" fill="#1f6f3a" opacity="0.75"/>

    <line x1="983" y1="114" x2="983" y2="78" stroke="#4ade80" stroke-width="2"/>
    <ellipse cx="977" cy="97" rx="6" ry="3" fill="#7ee787"/>
    <ellipse cx="989" cy="89" rx="6" ry="3" fill="#7ee787"/>
    <circle cx="983" cy="74" r="4" fill="#ffd166"/>
    <circle cx="978" cy="74" r="4" fill="#f78fb3"/>
    <circle cx="988" cy="74" r="4" fill="#f78fb3"/>
    <circle cx="983" cy="69" r="4" fill="#f78fb3"/>
    <circle cx="983" cy="79" r="4" fill="#f78fb3"/>
    <rect x="976" y="86" width="14" height="14" rx="3" fill="#1f6f3a" opacity="0.75"/>

        <line x1="983" y1="132" x2="983" y2="120" stroke="#4ade80" stroke-width="2"/>
        <ellipse cx="980" cy="123" rx="4" ry="2" fill="#7ee787"/>
        <ellipse cx="986" cy="119" rx="4" ry="2" fill="#7ee787"/>
        <rect x="976" y="104" width="14" height="14" rx="3" fill="#1f6f3a" opacity="0.75"/>

        <line x1="983" y1="150" x2="983" y2="130" stroke="#4ade80" stroke-width="2"/>
        <ellipse cx="979" cy="137" rx="5" ry="3" fill="#7ee787"/>
        <ellipse cx="987" cy="132" rx="5" ry="3" fill="#7ee787"/>
        <circle cx="983" cy="126" r="4" fill="#ff9ff3"/>
        <rect x="976" y="122" width="14" height="14" rx="3" fill="#1f6f3a" opacity="0.75"/>

        <line x1="983" y1="168" x2="983" y2="148" stroke="#4ade80" stroke-width="2"/>
        <ellipse cx="979" cy="155" rx="5" ry="3" fill="#7ee787"/>
        <ellipse cx="987" cy="150" rx="5" ry="3" fill="#7ee787"/>
        <circle cx="983" cy="144" r="4" fill="#ff9ff3"/>
        <rect x="976" y="140" width="14" height="14" rx="3" fill="#1f6f3a" opacity="0.75"/>

        <line x1="983" y1="186" x2="983" y2="158" stroke="#4ade80" stroke-width="2"/>
        <ellipse cx="978" cy="171" rx="5" ry="3" fill="#7ee787"/>
        <ellipse cx="988" cy="165" rx="5" ry="3" fill="#7ee787"/>
        <circle cx="983" cy="155" r="3" fill="#ffd166"/>
        <circle cx="979" cy="155" r="3" fill="#ff6ec7"/>
        <circle cx="987" cy="155" r="3" fill="#ff6ec7"/>
        <circle cx="983" cy="151" r="3" fill="#ff6ec7"/>
        <circle cx="983" cy="159" r="3" fill="#ff6ec7"/>
        <rect x="976" y="158" width="14" height="14" rx="3" fill="#161b22"/>
<rect x="976" y="176" width="14" height="14" rx="3" fill="#1f6f3a" opacity="0.75"/>

        <line x1="983" y1="222" x2="983" y2="194" stroke="#4ade80" stroke-width="2"/>
        <ellipse cx="978" cy="207" rx="5" ry="3" fill="#7ee787"/>
        <ellipse cx="988" cy="201" rx="5" ry="3" fill="#7ee787"/>
        <circle cx="983" cy="191" r="3" fill="#ffd166"/>
        <circle cx="979" cy="191" r="3" fill="#ff6ec7"/>
        <circle cx="987" cy="191" r="3" fill="#ff6ec7"/>
        <circle cx="983" cy="187" r="3" fill="#ff6ec7"/>
        <circle cx="983" cy="195" r="3" fill="#ff6ec7"/>
        
  <rect x="30" y="226" width="934" height="6" rx="3" fill="#238636"/>
  <text x="517.0" y="232" text-anchor="middle" fill="#a3e635" font-family="monospace" font-size="15">
    Every commit grows something new 🌱
  </text>
</svg>